<svg xmlns="http://www.w3.org/2000/svg" width="1280" height="360" viewBox="0 0 1280 360" fill="none">
  <style>
    * { font-family: -apple-system, BlinkMacSystemFont, "Segoe UI", Ubuntu, "Helvetica Neue", sans-serif; }
  </style>

  <rect width="1280" height="360" rx="14" fill="#0C0A09" stroke="#1C1917" stroke-width="1.5" />

  <g transform="translate(50, 48)">
    <text font-size="25" font-weight="800" fill="#F4F4F5" letter-spacing="-0.3px">Most Used Languages &amp; Codebase Distribution</text>
  </g>

  <!-- Donut Chart (Left Side, Bigger & Bolder) -->
  <g transform="translate(200, 198)">
    
        <path d="M 7.654042494670958e-15 -125 A 125 125 0 0 1 117.31794912807797 43.1450902465357 L 67.57513869777291 24.85157198200456 A 72 72 0 0 0 4.408728476930472e-15 -72 Z" fill="#3572A5" stroke="#0C0A09" stroke-width="2.5px">
          <title>Python: 30.6%</title>
        </path>
        <path d="M 117.31794912807797 43.1450902465357 A 125 125 0 0 1 -23.142481976557 122.83902282241068 L -13.330069618496832 70.75527714570856 A 72 72 0 0 0 67.57513869777291 24.85157198200456 Z" fill="#E34F26" stroke="#0C0A09" stroke-width="2.5px">
          <title>HTML: 22.4%</title>
        </path>
        <path d="M -23.142481976557 122.83902282241068 A 125 125 0 0 1 -121.15514887686889 30.764100842113614 L -69.78536575307648 17.72012208505744 A 72 72 0 0 0 -13.330069618496832 70.75527714570856 Z" fill="#3178C6" stroke="#0C0A09" stroke-width="2.5px">
          <title>TypeScript: 18.1%</title>
        </path>
        <path d="M -121.15514887686889 30.764100842113614 A 125 125 0 0 1 -95.48271405978856 -80.67249417104107 L -54.99804329843821 -46.467356642519654 A 72 72 0 0 0 -69.78536575307648 17.72012208505744 Z" fill="#F7DF1E" stroke="#0C0A09" stroke-width="2.5px">
          <title>JavaScript: 15.1%</title>
        </path>
        <path d="M -95.48271405978856 -80.67249417104107 A 125 125 0 0 1 -39.59739827702894 -118.5624141525903 L -22.808101407568664 -68.29195055189201 A 72 72 0 0 0 -54.99804329843821 -46.467356642519654 Z" fill="#1572B6" stroke="#0C0A09" stroke-width="2.5px">
          <title>CSS: 8.7%</title>
        </path>
        <path d="M -39.59739827702894 -118.5624141525903 A 125 125 0 0 1 -25.1980915080197 -122.43388495164835 L -14.514100708619349 -70.52191773214945 A 72 72 0 0 0 -22.808101407568664 -68.29195055189201 Z" fill="#336791" stroke="#0C0A09" stroke-width="2.5px">
          <title>PLpgSQL: 1.9%</title>
        </path>
        <path d="M -25.1980915080197 -122.43388495164835 A 125 125 0 0 1 -14.77186733814496 -124.12409893064378 L -8.508595586771497 -71.49548098405081 A 72 72 0 0 0 -14.514100708619349 -70.52191773214945 Z" fill="#F34B7D" stroke="#0C0A09" stroke-width="2.5px">
          <title>C++: 1.3%</title>
        </path>
        <path d="M -14.77186733814496 -124.12409893064378 A 125 125 0 0 1 -6.337038409933723 -124.83926443307419 L -3.6501341241218244 -71.90741631345074 A 72 72 0 0 0 -8.508595586771497 -71.49548098405081 Z" fill="#89E051" stroke="#0C0A09" stroke-width="2.5px">
          <title>Shell: 1.1%</title>
        </path>
        <path d="M -6.337038409933723 -124.83926443307419 A 125 125 0 0 1 -2.2962127484012872e-14 -125 L -1.3226185430791413e-14 -72 A 72 72 0 0 0 -3.6501341241218244 -71.90741631345074 Z" fill="#384D54" stroke="#0C0A09" stroke-width="2.5px">
          <title>Dockerfile: 0.8%</title>
        </path>
  </g>

  <!-- Languages Clean Legend (Right Side, Big Crisp Font) -->
  <g transform="translate(390, 105)">
    
    <g transform="translate(0, 0)">
      <circle cx="9" cy="17" r="7" fill="#3572A5" />
      <text x="28" y="23" font-size="17.5" font-weight="700" fill="#FFFFFF">Python <tspan fill="#3572A5" font-size="16.5" font-weight="800">(30.6%)</tspan></text>
    </g>
    <g transform="translate(285, 0)">
      <circle cx="9" cy="17" r="7" fill="#E34F26" />
      <text x="28" y="23" font-size="17.5" font-weight="700" fill="#FFFFFF">HTML <tspan fill="#E34F26" font-size="16.5" font-weight="800">(22.4%)</tspan></text>
    </g>
    <g transform="translate(570, 0)">
      <circle cx="9" cy="17" r="7" fill="#3178C6" />
      <text x="28" y="23" font-size="17.5" font-weight="700" fill="#FFFFFF">TypeScript <tspan fill="#3178C6" font-size="16.5" font-weight="800">(18.1%)</tspan></text>
    </g>
    <g transform="translate(0, 52)">
      <circle cx="9" cy="17" r="7" fill="#F7DF1E" />
      <text x="28" y="23" font-size="17.5" font-weight="700" fill="#FFFFFF">JavaScript <tspan fill="#F7DF1E" font-size="16.5" font-weight="800">(15.1%)</tspan></text>
    </g>
    <g transform="translate(285, 52)">
      <circle cx="9" cy="17" r="7" fill="#1572B6" />
      <text x="28" y="23" font-size="17.5" font-weight="700" fill="#FFFFFF">CSS <tspan fill="#1572B6" font-size="16.5" font-weight="800">(8.7%)</tspan></text>
    </g>
    <g transform="translate(570, 52)">
      <circle cx="9" cy="17" r="7" fill="#336791" />
      <text x="28" y="23" font-size="17.5" font-weight="700" fill="#FFFFFF">PLpgSQL <tspan fill="#336791" font-size="16.5" font-weight="800">(1.9%)</tspan></text>
    </g>
    <g transform="translate(0, 104)">
      <circle cx="9" cy="17" r="7" fill="#F34B7D" />
      <text x="28" y="23" font-size="17.5" font-weight="700" fill="#FFFFFF">C++ <tspan fill="#F34B7D" font-size="16.5" font-weight="800">(1.3%)</tspan></text>
    </g>
    <g transform="translate(285, 104)">
      <circle cx="9" cy="17" r="7" fill="#89E051" />
      <text x="28" y="23" font-size="17.5" font-weight="700" fill="#FFFFFF">Shell <tspan fill="#89E051" font-size="16.5" font-weight="800">(1.1%)</tspan></text>
    </g>
    <g transform="translate(570, 104)">
      <circle cx="9" cy="17" r="7" fill="#384D54" />
      <text x="28" y="23" font-size="17.5" font-weight="700" fill="#FFFFFF">Dockerfile <tspan fill="#384D54" font-size="16.5" font-weight="800">(0.8%)</tspan></text>
    </g>
  </g>
</svg>