<svg xmlns="http://www.w3.org/2000/svg" width="119" height="36" viewBox="0 0 119 36" fill="none">
  <!-- Subtle Tinted Background & 1.2px Border -->
  <rect width="119" height="36" rx="6" fill="rgb(38, 29, 35)" stroke="rgb(105, 70, 81)" stroke-width="1.2" />
  <!-- Brand Icon (x=13, y=9) -->
  <g transform="translate(13, 9)">
    <svg width="18" height="18" viewBox="0 0 24 24" fill="none" stroke="#FB7185" stroke-width="2"><path d="M8.5 14.5A2.5 2.5 0 0 0 11 12c0-1.38-.5-2-1-3-1.072-2.143-.224-4.054 2-6 .5 2.5 2 4.9 4 6.5 2 1.6 3 3.5 3 5.5a7 7 0 1 1-14 0c0-1.153.433-2.294 1-3a2.5 2.5 0 0 0 2.5 2.5z"/></svg>
  </g>
  <!-- Clean High-Contrast Typography -->
  <text x="38" y="22.5" font-family="-apple-system, BlinkMacSystemFont, 'Segoe UI', 'Inter', Roboto, sans-serif" font-size="12.5" font-weight="600" letter-spacing="0.3" fill="#F4F4F5">Firecrawl</text>
</svg>